<svg width="104" height="48" viewBox="0 0 104 48" fill="none" xmlns="http://www.w3.org/2000/svg">
<g clip-path="url(#clip0_12_506)">
<path d="M20.2667 40.0235V46.8267C20.2667 46.8267 40.6763 40.9237 40.6763 21.0133" fill="#FC0000"/>
<path d="M20.2667 40.0235V46.8267C20.2667 46.8267 40.6763 40.9237 40.6763 21.0133" stroke="#FC0000" stroke-width="2.34667" stroke-linecap="round" stroke-linejoin="round"/>
<path d="M21.0133 42.0267C32.6187 42.0267 42.0267 32.6187 42.0267 21.0133C42.0267 9.40799 32.6187 0 21.0133 0C9.40799 0 0 9.40799 0 21.0133C0 32.6187 9.40799 42.0267 21.0133 42.0267Z" fill="#FC0000"/>
<path d="M25.4037 30.7819C23.1808 30.7819 21.3717 28.9728 21.3717 26.7499V12.3904C21.3717 12.3243 21.3675 12.2581 21.3632 12.1941C21.4123 11.84 21.4379 11.4795 21.4379 11.1125V8.38401C21.4379 6.97388 20.2944 5.82828 18.8821 5.82828C17.4699 5.82828 16.3264 6.97174 16.3264 8.38401V11.1125C16.3264 12.5824 15.1296 13.7792 13.6597 13.7792H11.2277C9.8176 13.7792 8.672 14.9227 8.672 16.3349C8.672 17.7472 9.81546 18.8907 11.2277 18.8907H13.6597C14.5707 18.8907 15.4453 18.7328 16.2603 18.4427V26.752C16.2603 31.7931 20.3605 35.8933 25.4016 35.8933C26.8117 35.8933 27.9573 34.7499 27.9573 33.3376C27.9573 31.9253 26.8139 30.7819 25.4016 30.7819H25.4037Z" fill="white"/>
<path d="M25.6683 18.8907C27.0798 18.8907 28.224 17.7464 28.224 16.3349C28.224 14.9234 27.0798 13.7792 25.6683 13.7792C24.2568 13.7792 23.1125 14.9234 23.1125 16.3349C23.1125 17.7464 24.2568 18.8907 25.6683 18.8907Z" fill="white"/>
<path d="M89.7579 14.4363C91.1403 14.4363 92.2624 13.3163 92.2624 11.9317C92.2624 10.5472 91.1424 9.42719 89.7579 9.42719H77.9499C76.5675 9.42719 75.4454 10.5472 75.4454 11.9317V25.1627C75.4454 26.545 76.5654 27.6672 77.9499 27.6672H89.7579C91.1403 27.6672 92.2624 26.5472 92.2624 25.1627C92.2624 23.7781 91.1424 22.6581 89.7579 22.6581H80.4544V14.4341H89.7579V14.4363Z" fill="#333333"/>
<path d="M70.208 33.0859H63.8358V28.416C68.0107 27.2811 71.0912 23.4603 71.0912 18.9312C71.0912 13.5104 66.6816 9.1008 61.2608 9.1008C55.84 9.1008 51.4304 13.5104 51.4304 18.9312C51.4304 23.5115 54.5792 27.3707 58.8267 28.4565V35.5904C58.8267 36.9728 59.9467 38.0949 61.3312 38.0949H70.208C71.5904 38.0949 72.7126 36.9749 72.7126 35.5904C72.7126 34.2059 71.5926 33.0859 70.208 33.0859ZM56.4374 18.9312C56.4374 16.2731 58.6006 14.1077 61.2608 14.1077C63.9211 14.1077 66.0843 16.2709 66.0843 18.9312C66.0843 21.5915 63.9211 23.7547 61.2608 23.7547C58.6006 23.7547 56.4374 21.5915 56.4374 18.9312Z" fill="#333333"/>
<path d="M101.389 16.2283H93.9926C92.6102 16.2283 91.488 17.3483 91.488 18.7328C91.488 20.1173 92.608 21.2373 93.9926 21.2373H98.8864V27.9509C98.8864 29.3333 100.006 30.4555 101.391 30.4555C102.775 30.4555 103.895 29.3355 103.895 27.9509V18.7328C103.895 17.3504 102.775 16.2283 101.391 16.2283H101.389Z" fill="#333333"/>
</g>
<defs>
<clipPath id="clip0_12_506">
<rect width="104" height="48" fill="white"/>
</clipPath>
</defs>
</svg>
