<svg width="104" height="48" viewBox="0 0 104 48" fill="none" xmlns="http://www.w3.org/2000/svg">
<g clip-path="url(#clip0_12_527)">
<path d="M42.0252 21.0126C42.0252 9.40867 32.6199 0 21.0126 0C9.40531 0 0 9.40867 0 21.0126C0 31.972 8.38825 40.9678 19.0926 41.9379V46.8252C19.0926 47.1944 19.2671 47.5401 19.5592 47.7617C19.7639 47.9161 20.0123 47.9967 20.2641 47.9967C20.3715 47.9967 20.4822 47.9799 20.5897 47.9497C20.8078 47.8859 25.967 46.3653 31.1899 42.3105C36.6545 38.0643 40.0985 32.6232 41.3337 26.3698C41.7835 24.6579 42.0252 22.8621 42.0252 21.0092V21.0126Z" fill="#FC0000"/>
<path d="M25.4031 30.7804C23.181 30.7804 21.3718 28.9712 21.3718 26.7491V12.3894C21.3718 12.3223 21.3718 12.2585 21.3651 12.1947C21.4154 11.8423 21.4423 11.4797 21.4423 11.1139V8.38491C21.4423 6.97512 20.2976 5.83051 18.8879 5.83051C17.4781 5.83051 16.3334 6.97512 16.3334 8.38491V11.1139C16.3334 12.5841 15.1385 13.7824 13.6683 13.7824H11.2347C9.82491 13.7824 8.6803 14.927 8.6803 16.3368C8.6803 17.7466 9.82491 18.8912 11.2347 18.8912H13.6683C14.5779 18.8912 15.454 18.7334 16.2663 18.4448V26.7525C16.2663 31.7941 20.3681 35.8926 25.4065 35.8926C26.8162 35.8926 27.9609 34.748 27.9609 33.3382C27.9609 31.9284 26.8162 30.7838 25.4065 30.7838L25.4031 30.7804Z" fill="white"/>
<path d="M25.6683 18.8878C27.0791 18.8878 28.2227 17.7442 28.2227 16.3334C28.2227 14.9227 27.0791 13.779 25.6683 13.779C24.2575 13.779 23.1139 14.9227 23.1139 16.3334C23.1139 17.7442 24.2575 18.8878 25.6683 18.8878Z" fill="white"/>
<path d="M89.7567 14.4369C91.1396 14.4369 92.2608 13.3158 92.2608 11.9329C92.2608 10.5499 91.1396 9.4288 89.7567 9.4288H77.948C76.5651 9.4288 75.444 10.5499 75.444 11.9329V25.1647C75.444 26.5477 76.5651 27.6688 77.948 27.6688H89.7567C91.1396 27.6688 92.2608 26.5477 92.2608 25.1647C92.2608 23.7818 91.1396 22.6607 89.7567 22.6607H80.4521V14.4369H89.7567Z" fill="white"/>
<path d="M70.2076 33.0864H63.8333V28.4173C68.009 27.2828 71.087 23.4596 71.087 18.9315C71.087 13.5105 66.6764 9.10321 61.2588 9.10321C55.8412 9.10321 51.4305 13.5138 51.4305 18.9315C51.4305 23.5133 54.5791 27.3701 58.8286 28.4576V35.5905C58.8286 36.9734 59.9497 38.0945 61.3326 38.0945H70.211C71.5939 38.0945 72.715 36.9734 72.715 35.5905C72.715 34.2075 71.5939 33.0864 70.211 33.0864H70.2076ZM56.4387 18.9315C56.4387 16.273 58.6037 14.108 61.2621 14.108C63.9206 14.108 66.0856 16.273 66.0856 18.9315C66.0856 21.5899 63.9206 23.755 61.2621 23.755C58.6037 23.755 56.4387 21.5899 56.4387 18.9315Z" fill="white"/>
<path d="M101.391 16.2294H93.9928C92.6099 16.2294 91.4887 17.3505 91.4887 18.7334C91.4887 20.1164 92.6099 21.2375 93.9928 21.2375H98.8868V27.9508C98.8868 29.3337 100.008 30.4548 101.391 30.4548C102.774 30.4548 103.895 29.3337 103.895 27.9508V18.7334C103.895 17.3505 102.774 16.2294 101.391 16.2294Z" fill="white"/>
</g>
<defs>
<clipPath id="clip0_12_527">
<rect width="104" height="48" fill="white"/>
</clipPath>
</defs>
</svg>
